<?xml version="1.0" encoding="UTF-8" standalone="no"?>
<svg
   xmlns:dc="http://purl.org/dc/elements/1.1/"
   xmlns:cc="http://creativecommons.org/ns#"
   xmlns:rdf="http://www.w3.org/1999/02/22-rdf-syntax-ns#"
   xmlns:svg="http://www.w3.org/2000/svg"
   xmlns="http://www.w3.org/2000/svg"
   height="321.29999"
   width="311.60001"
   xml:space="preserve"
   viewBox="0 232.9 311.60001 321.29998"
   y="0px"
   x="0px"
   id="Calque_1"
   version="1.1"><metadata
   id="metadata25"><rdf:RDF><cc:Work
       rdf:about=""><dc:format>image/svg+xml</dc:format><dc:type
         rdf:resource="http://purl.org/dc/dcmitype/StillImage" /><dc:title></dc:title></cc:Work></rdf:RDF></metadata><defs
   id="defs23" /> <g
   transform="translate(-15.9,-32.3)"
   id="g18">       <path
   style="fill:#000000"
   id="path14"
   d="M 143.9,265.2 C 95.5,370 53,477.2 15.9,586.5 h 63 c 29.1,-85.8 56.7,-170.1 92.8,-253.2 36,83 63.7,167.5 92.8,253.2 h 63 C 290,477.2 247.5,370 199.1,265.2 Z" /> <path
   style="fill:#1c7dff"
   id="path16"
   d="m 230,564 c -1.2,0.5 -2.3,1 -3.5,1.5 v 0 0 c -17,6.8 -35.7,10.4 -55.1,10.4 -19.5,0 -38,-3.6 -55.2,-10.4 v 0 c -1.3,-0.5 -2.5,-1 -3.6,-1.5 5.3,-16.2 10.7,-31.9 16,-47.1 13.1,6.1 27.6,9.6 42.8,9.6 15.2,0 29.8,-3.5 42.7,-9.6 5.3,15.2 10.6,30.9 15.9,47.1" /> </g> </svg>